<svg width="22" height="22" viewBox="0 0 22 22" fill="none" xmlns="http://www.w3.org/2000/svg">
<path d="M20.0305 14.393C18.8862 14.2517 17.7499 14.0514 16.6262 13.7929C16.3519 13.7012 16.0585 13.6818 15.7746 13.7368C15.4906 13.7917 15.2256 13.919 15.0052 14.1065C14.7188 14.3984 13.892 15.2147 13.0329 16.058C9.95461 14.5441 7.46511 12.0516 5.95424 8.97075C6.79179 8.1112 7.5753 7.28949 7.89411 7.00297C8.08144 6.78248 8.20872 6.51735 8.26362 6.23323C8.31853 5.94911 8.2992 5.65562 8.20752 5.38117C7.94881 4.25524 7.74861 3.11665 7.60772 1.96998C7.59263 1.82396 7.54797 1.68255 7.47647 1.55436C7.40498 1.42616 7.30813 1.31388 7.19185 1.22435C7.07556 1.13482 6.94228 1.06992 6.8001 1.03361C6.65793 0.997291 6.50986 0.99032 6.36491 1.01312H1.76109C1.57106 1.03028 1.39317 1.11397 1.25875 1.24945C1.12432 1.38492 1.04198 1.5635 1.02621 1.75374C0.729019 5.91096 3.04714 10.3601 3.51725 11.2142V11.2467L3.58209 11.371C5.26494 14.291 7.688 16.7152 10.6067 18.3988V18.3988L10.8444 18.534C11.9252 19.107 16.221 21.2694 20.2358 20.9721C20.4279 20.9587 20.6089 20.8774 20.7466 20.7427C20.8842 20.608 20.9694 20.4287 20.9869 20.2369V15.6364C21.0097 15.4913 21.0027 15.3432 20.9664 15.201C20.9301 15.0587 20.8652 14.9254 20.7757 14.809C20.6863 14.6927 20.574 14.5958 20.4459 14.5243C20.3178 14.4527 20.1764 14.4081 20.0305 14.393Z" stroke="#CD9451" stroke-linecap="round" stroke-linejoin="round"/>
</svg>
