<svg width="176" height="176" viewBox="0 0 176 176" fill="none" xmlns="http://www.w3.org/2000/svg">
<path d="M124.245 56.5461H115.068C113.073 56.5461 111.175 57.5049 110.001 59.1484L79.2429 101.803L65.3118 82.4713C64.1378 80.8473 62.2595 79.869 60.2442 79.869H51.0676C49.7958 79.869 49.0523 81.3169 49.7958 82.3539L74.1752 116.164C74.7512 116.968 75.5104 117.623 76.39 118.075C77.2696 118.527 78.2442 118.762 79.2331 118.762C80.222 118.762 81.1966 118.527 82.0762 118.075C82.9558 117.623 83.715 116.968 84.2909 116.164L125.497 59.031C126.26 57.994 125.517 56.5461 124.245 56.5461Z" fill="#CD9451"/>
<path d="M87.6563 0C39.2497 0 0 39.2497 0 87.6563C0 136.063 39.2497 175.313 87.6563 175.313C136.063 175.313 175.313 136.063 175.313 87.6563C175.313 39.2497 136.063 0 87.6563 0ZM87.6563 160.442C47.4674 160.442 14.8703 127.845 14.8703 87.6563C14.8703 47.4674 47.4674 14.8703 87.6563 14.8703C127.845 14.8703 160.442 47.4674 160.442 87.6563C160.442 127.845 127.845 160.442 87.6563 160.442Z" fill="#CD9451"/>
</svg>
