<svg width="57" height="66" viewBox="0 0 57 66" fill="none" xmlns="http://www.w3.org/2000/svg">
<path d="M41.8404 17.8624V14.2294C41.8404 13.8963 41.5676 13.6239 41.234 13.6239H12.1277C11.7941 13.6239 11.5213 13.8963 11.5213 14.2294V17.8624C11.5213 18.1954 11.7941 18.4679 12.1277 18.4679H41.234C41.5676 18.4679 41.8404 18.1954 41.8404 17.8624ZM12.1277 24.5229C11.7941 24.5229 11.5213 24.7954 11.5213 25.1284V28.7615C11.5213 29.0945 11.7941 29.367 12.1277 29.367H26.0745C26.408 29.367 26.6809 29.0945 26.6809 28.7615V25.1284C26.6809 24.7954 26.408 24.5229 26.0745 24.5229H12.1277ZM40.6277 33.3027C31.585 33.3027 24.2553 40.6218 24.2553 49.6514C24.2553 58.681 31.585 66 40.6277 66C49.6703 66 57 58.681 57 49.6514C57 40.6218 49.6703 33.3027 40.6277 33.3027ZM48.7759 57.7878C46.6005 59.9601 43.7051 61.156 40.6277 61.156C37.5503 61.156 34.6548 59.9601 32.4794 57.7878C30.304 55.6156 29.1064 52.7243 29.1064 49.6514C29.1064 46.5784 30.304 43.6872 32.4794 41.5149C34.6548 39.3427 37.5503 38.1468 40.6277 38.1468C43.7051 38.1468 46.6005 39.3427 48.7759 41.5149C50.9513 43.6872 52.1489 46.5784 52.1489 49.6514C52.1489 52.7243 50.9513 55.6156 48.7759 57.7878ZM47.3737 43.8991H44.0158C43.8187 43.8991 43.6368 43.9899 43.5231 44.1488L38.71 50.7943L36.959 48.3798C36.903 48.3018 36.8289 48.2384 36.7432 48.195C36.6575 48.1515 36.5625 48.1292 36.4664 48.13H33.1237C32.631 48.13 32.343 48.6901 32.631 49.0913L38.2249 56.819C38.4674 57.1521 38.9601 57.1521 39.2027 56.819L47.8588 44.8603C48.1544 44.4592 47.8664 43.8991 47.3737 43.8991ZM23.0426 58.7339H5.45745V5.44954H47.9043V31.4862C47.9043 31.8193 48.1771 32.0917 48.5106 32.0917H52.7553C53.0888 32.0917 53.3617 31.8193 53.3617 31.4862V2.42202C53.3617 1.08234 52.2778 0 50.9362 0H2.42553C1.08391 0 0 1.08234 0 2.42202V61.7615C0 63.1011 1.08391 64.1835 2.42553 64.1835H23.0426C23.3761 64.1835 23.6489 63.911 23.6489 63.578V59.3394C23.6489 59.0064 23.3761 58.7339 23.0426 58.7339Z" fill="#EEEEEE"/>
</svg>
