<svg width="120" height="120" viewBox="0 0 120 120" fill="none" xmlns="http://www.w3.org/2000/svg">
<circle cx="60" cy="60" r="60" fill="#262626"/>
<path d="M120 60C120 93.1371 93.1371 120 60 120C26.8629 120 0 93.1371 0 60C0 26.8629 26.8629 0 60 0C93.1371 0 120 26.8629 120 60ZM4.24487 60C4.24487 90.7927 29.2073 115.755 60 115.755C90.7927 115.755 115.755 90.7927 115.755 60C115.755 29.2073 90.7927 4.24487 60 4.24487C29.2073 4.24487 4.24487 29.2073 4.24487 60Z" fill="#CD9451"/>
<g clip-path="url(#clip0_239_1264)">
<path d="M35.2078 68.4943H55.867L54.192 64.1172H36.8829L35.2078 68.4943ZM45.4258 50.3293L52.126 65.7586L52.5727 66.8529L58.268 79.9842H63.5724L45.4258 39.7695L27.2792 79.9842H32.5836L38.3905 66.5246L38.8372 65.5397L45.4258 50.3293Z" fill="#CD9451"/>
<path d="M64.2424 61.3825H91.0435V57.0054H64.2424V61.3825ZM87.8609 41.6855V79.9852H92.6069V41.6855H87.8609ZM61.6181 41.6855V79.9852H66.3641V41.6855H61.6181Z" fill="#CD9451"/>
</g>
<defs>
<clipPath id="clip0_239_1264">
<rect width="65" height="40" fill="white" transform="translate(27 40)"/>
</clipPath>
</defs>
</svg>
