<svg width="50" height="67" viewBox="0 0 50 67" fill="none" xmlns="http://www.w3.org/2000/svg">
<path d="M25 1C18.6348 1 12.5303 3.61321 8.02944 8.26475C3.52856 12.9163 1 19.2251 1 25.8034V25.8034V27.6109C1.97166 41.2009 12.8866 52.1298 25 66.2721C37.6478 51.5106 49 40.3306 49 25.8034C49 19.2251 46.4714 12.9163 41.9706 8.26475C37.4697 3.61321 31.3652 1 25 1ZM25 13.8871C27.2844 13.8871 29.5174 14.5874 31.4166 15.8993C33.3158 17.2113 34.7957 19.076 35.6692 21.2574C36.5426 23.4389 36.7703 25.8391 36.3235 28.1543C35.8767 30.4696 34.7753 32.5958 33.1589 34.264C31.5425 35.9322 29.4836 37.0674 27.2427 37.526C25.0018 37.9845 22.6797 37.7458 20.5701 36.8401C18.4605 35.9343 16.6583 34.4022 15.3915 32.4376C14.1247 30.4731 13.4502 28.1643 13.4534 25.8034C13.4577 22.6415 14.6761 19.6105 16.8411 17.3763C19.006 15.142 21.9405 13.8871 25 13.8871Z" stroke="#CD9451" stroke-linecap="round" stroke-linejoin="round"/>
</svg>
