<?xml version="1.0" encoding="UTF-8"?>
<!DOCTYPE svg PUBLIC "-//W3C//DTD SVG 1.1//EN" "http://www.w3.org/Graphics/SVG/1.1/DTD/svg11.dtd">
<!-- Creator: CorelDRAW Home & Student X8 -->
<svg xmlns="http://www.w3.org/2000/svg" xml:space="preserve" width="35px" height="50px" version="1.1" shape-rendering="geometricPrecision" text-rendering="geometricPrecision" image-rendering="optimizeQuality" fill-rule="evenodd" clip-rule="evenodd"
viewBox="0 0 35 50"
 xmlns:xlink="http://www.w3.org/1999/xlink">
 <g id="Слой_x0020_1">
  <metadata id="CorelCorpID_0Corel-Layer"/>
  <path fill="black" d="M72 -20c3,0 6,2 7,5l-1 0c-1,-2 -3,-4 -6,-4 -4,0 -7,3 -7,7 0,3 3,6 7,6 2,0 4,-1 6,-3l1 0c-1,3 -4,4 -7,4 -4,0 -8,-3 -8,-7 0,-4 4,-8 8,-8zm3 11l-3 -2 0 -5 -1 0 0 5 0 0 0 0 3 3 1 -1zm1 -5l5 0 0 1 -5 0 0 -1zm0 3l3 0 0 1 -3 0 0 -1z"/>
  <polygon fill="#CD9451" points="6,5 8,3 8,2 6,4 4,3 4,4 6,6 6,5 "/>
 </g>
</svg>
