<svg width="586" height="262" viewBox="0 0 586 262" fill="none" xmlns="http://www.w3.org/2000/svg">
<g filter="url(#filter0_d_3_704)">
<path d="M42.9412 10H566V232H42.9412H20C20 232 42.9412 218.978 42.9412 192.933C42.9412 166.888 42.9412 10 42.9412 10Z" fill="#181818"/>
<path d="M43.1912 10.25H565.75V231.75H42.9412H20.8874C20.9608 231.703 21.039 231.653 21.1218 231.599C21.7536 231.189 22.6548 230.576 23.7354 229.758C25.8964 228.122 28.7772 225.669 31.6582 222.398C37.4201 215.857 43.1912 206.034 43.1912 192.933V192.779V192.622V192.462V192.299V192.133V191.964V191.792V191.617V191.44V191.259V191.076V190.89V190.701V190.509V190.314V190.117V189.916V189.713V189.508V189.299V189.088V188.874V188.657V188.438V188.215V187.991V187.763V187.533V187.3V187.065V186.827V186.587V186.343V186.098V185.849V185.599V185.345V185.089V184.831V184.57V184.307V184.041V183.773V183.502V183.229V182.953V182.675V182.395V182.112V181.827V181.54V181.25V180.958V180.663V180.367V180.068V179.766V179.463V179.157V178.849V178.539V178.226V177.912V177.595V177.276V176.955V176.631V176.306V175.978V175.649V175.317V174.983V174.647V174.309V173.969V173.627V173.283V172.937V172.589V172.239V171.887V171.533V171.177V170.819V170.459V170.098V169.734V169.369V169.002V168.632V168.261V167.889V167.514V167.138V166.76V166.38V165.998V165.614V165.229V164.842V164.454V164.063V163.671V163.278V162.882V162.485V162.087V161.687V161.285V160.881V160.476V160.07V159.662V159.252V158.841V158.428V158.014V157.598V157.181V156.762V156.342V155.921V155.498V155.073V154.648V154.22V153.792V153.362V152.931V152.498V152.064V151.629V151.193V150.755V150.316V149.876V149.434V148.991V148.547V148.102V147.655V147.208V146.759V146.309V145.858V145.406V144.953V144.498V144.043V143.586V143.129V142.67V142.21V141.749V141.288V140.825V140.361V139.896V139.431V138.964V138.496V138.028V137.558V137.088V136.617V136.145V135.672V135.198V134.723V134.248V133.772V133.295V132.817V132.338V131.859V131.379V130.898V130.416V129.934V129.451V128.967V128.483V127.998V127.513V127.026V126.54V126.052V125.564V125.076V124.586V124.097V123.606V123.116V122.624V122.133V121.64V121.148V120.654V120.161V119.667V119.172V118.677V118.182V117.686V117.19V116.694V116.197V115.7V115.202V114.705V114.206V113.708V113.21V112.711V112.212V111.712V111.213V110.713V110.213V109.713V109.213V108.712V108.212V107.711V107.21V106.71V106.209V105.707V105.206V104.705V104.204V103.703V103.202V102.7V102.199V101.698V101.197V100.696V100.195V99.6936V99.1928V98.692V98.1914V97.6909V97.1905V96.6903V96.1903V95.6904V95.1908V94.6913V94.1921V93.6931V93.1944V92.6959V92.1976V91.6997V91.2021V90.7048V90.2078V89.7111V89.2148V88.7188V88.2233V87.7281V87.2333V86.7389V86.245V85.7515V85.2584V84.7658V84.2737V83.7821V83.291V82.8004V82.3103V81.8208V81.3318V80.8434V80.3556V79.8684V79.3817V78.8957V78.4104V77.9256V77.4416V76.9582V76.4755V75.9934V75.5121V75.0316V74.5517V74.0726V73.5943V73.1167V72.6399V72.164V71.6888V71.2145V70.741V70.2683V69.7965V69.3256V68.8556V68.3865V67.9183V67.451V66.9847V66.5193V66.0549V65.5915V65.129V64.6676V64.2072V63.7478V63.2895V62.8322V62.376V61.9208V61.4668V61.0139V60.5621V60.1114V59.6619V59.2135V58.7663V58.3203V57.8755V57.4319V56.9896V56.5484V56.1085V55.6699V55.2326V54.7965V54.3618V53.9283V53.4962V53.0654V52.636V52.2079V51.7813V51.356V50.9321V50.5096V50.0886V49.669V49.2509V48.8342V48.419V48.0053V47.5931V47.1825V46.7733V46.3658V45.9597V45.5553V45.1524V44.7511V44.3515V43.9534V43.557V43.1623V42.7692V42.3777V41.988V41.6V41.2137V40.8291V40.4462V40.0651V39.6858V39.3082V38.9324V38.5584V38.1863V37.816V37.4475V37.0809V36.7161V36.3532V35.9922V35.6331V35.276V34.9207V34.5674V34.2161V33.8668V33.5194V33.174V32.8306V32.4893V32.15V31.8127V31.4775V31.1443V30.8133V30.4843V30.1575V29.8328V29.5102V29.1898V28.8715V28.5554V28.2415V27.9298V27.6203V27.3131V27.0081V26.7053V26.4048V26.1066V25.8107V25.517V25.2257V24.9368V24.6501V24.3659V24.084V23.8044V23.5273V23.2526V22.9803V22.7104V22.443V22.178V21.9155V21.6555V21.398V21.143V20.8906V20.6406V20.3932V20.1484V19.9061V19.6665V19.4294V19.195V18.9631V18.734V18.5074V18.2836V18.0624V17.8439V17.6281V17.415V17.2046V16.997V16.7922V16.5901V16.3908V16.1943V16.0005V15.8097V15.6216V15.4364V15.254V15.0745V14.8979V14.7242V14.5534V14.3856V14.2206V14.0586V13.8996V13.7436V13.5905V13.4404V13.2934V13.1493V13.0083V12.8704V12.7355V12.6037V12.475V12.3494V12.2269V12.1075V11.9913V11.8782V11.7683V11.6616V11.558V11.4577V11.3606V11.2667V11.176V11.0887V11.0045V10.9237V10.8462V10.7719V10.701V10.6335V10.5692V10.5084V10.4509V10.3967V10.346V10.2987V10.2548V10.25Z" stroke="#CD9451" stroke-width="0.5"/>
</g>
<defs>
<filter id="filter0_d_3_704" x="0" y="0" width="586" height="262" filterUnits="userSpaceOnUse" color-interpolation-filters="sRGB">
<feFlood flood-opacity="0" result="BackgroundImageFix"/>
<feColorMatrix in="SourceAlpha" type="matrix" values="0 0 0 0 0 0 0 0 0 0 0 0 0 0 0 0 0 0 127 0" result="hardAlpha"/>
<feOffset dy="10"/>
<feGaussianBlur stdDeviation="10"/>
<feComposite in2="hardAlpha" operator="out"/>
<feColorMatrix type="matrix" values="0 0 0 0 0 0 0 0 0 0 0 0 0 0 0 0 0 0 0.3 0"/>
<feBlend mode="normal" in2="BackgroundImageFix" result="effect1_dropShadow_3_704"/>
<feBlend mode="normal" in="SourceGraphic" in2="effect1_dropShadow_3_704" result="shape"/>
</filter>
</defs>
</svg>
