<svg width="50" height="49" viewBox="0 0 50 49" fill="none" xmlns="http://www.w3.org/2000/svg">
<path d="M46.6731 32.4735C43.9268 32.1415 41.1998 31.6708 38.503 31.0633C37.8446 30.8478 37.1405 30.8023 36.4589 30.9314C35.7774 31.0605 35.1413 31.3597 34.6124 31.8002C33.9251 32.4862 31.9409 34.4045 29.8789 36.3863C22.4911 32.8287 16.5163 26.9712 12.8902 19.7313C14.9003 17.7113 16.7807 15.7803 17.5459 15.107C17.9955 14.5888 18.3009 13.9658 18.4327 13.2981C18.5645 12.6304 18.5181 11.9407 18.298 11.2957C17.6771 8.64981 17.1967 5.97412 16.8585 3.27946C16.8223 2.93631 16.7151 2.60398 16.5435 2.30273C16.3719 2.00149 16.1395 1.73762 15.8604 1.52723C15.5814 1.31684 15.2615 1.16432 14.9203 1.07898C14.579 0.993635 14.2237 0.977253 13.8758 1.03083H2.82663C2.37055 1.07116 1.94361 1.26783 1.62099 1.5862C1.29837 1.90456 1.10075 2.32422 1.06291 2.77129C0.349646 12.5407 5.91313 22.9962 7.04139 25.0035V25.0797L7.19701 25.3719C11.2358 32.2339 17.0512 37.9307 24.0561 41.8872V41.8872L24.6267 42.2048C27.2204 43.5515 37.5303 48.6331 47.1659 47.9344C47.6269 47.9031 48.0614 47.712 48.3917 47.3954C48.722 47.0788 48.9265 46.6574 48.9685 46.2066V35.3954C49.0232 35.0546 49.0065 34.7065 48.9194 34.3723C48.8323 34.038 48.6766 33.7246 48.4618 33.4512C48.247 33.1778 47.9777 32.9502 47.6702 32.7821C47.3626 32.614 47.0234 32.509 46.6731 32.4735Z" stroke="#CD9451" stroke-linecap="round" stroke-linejoin="round"/>
</svg>
