<svg width="66" height="66" viewBox="0 0 66 66" fill="none" xmlns="http://www.w3.org/2000/svg">
<path fill-rule="evenodd" clip-rule="evenodd" d="M53.1666 62.3333C55.5977 62.3333 57.9293 61.3675 59.6484 59.6484C61.3675 57.9293 62.3333 55.5977 62.3333 53.1666C62.3333 50.7354 61.3675 48.4039 59.6484 46.6848C57.9293 44.9657 55.5977 43.9999 53.1666 43.9999C50.7354 43.9999 48.4039 44.9657 46.6848 46.6848C44.9657 48.4039 43.9999 50.7354 43.9999 53.1666C43.9999 55.5977 44.9657 57.9293 46.6848 59.6484C48.4039 61.3675 50.7354 62.3333 53.1666 62.3333ZM53.1666 65.9999C56.5702 65.9999 59.8344 64.6478 62.2411 62.2411C64.6478 59.8344 65.9999 56.5702 65.9999 53.1666C65.9999 49.763 64.6478 46.4988 62.2411 44.092C59.8344 41.6853 56.5702 40.3333 53.1666 40.3333C49.763 40.3333 46.4988 41.6853 44.092 44.092C41.6853 46.4988 40.3333 49.763 40.3333 53.1666C40.3333 56.5702 41.6853 59.8344 44.092 62.2411C46.4988 64.6478 49.763 65.9999 53.1666 65.9999Z" fill="#EEEEEE"/>
<path fill-rule="evenodd" clip-rule="evenodd" d="M53.1666 46.75C53.6528 46.75 54.1191 46.9432 54.4629 47.287C54.8068 47.6308 54.9999 48.0971 54.9999 48.5833V52.4077L56.2961 53.7038C56.63 54.0496 56.8148 54.5127 56.8107 54.9934C56.8065 55.4741 56.6137 55.9339 56.2738 56.2738C55.9338 56.6137 55.474 56.8066 54.9933 56.8107C54.5126 56.8149 54.0495 56.6301 53.7037 56.2962L51.3333 53.9257V48.5833C51.3333 48.0971 51.5264 47.6308 51.8702 47.287C52.214 46.9432 52.6804 46.75 53.1666 46.75ZM14.6666 31.1667H10.9999V34.8333H14.6666V31.1667ZM10.9999 27.5C10.0275 27.5 9.09483 27.8863 8.40719 28.5739C7.71956 29.2616 7.33325 30.1942 7.33325 31.1667V34.8333C7.33325 35.8058 7.71956 36.7384 8.40719 37.4261C9.09483 38.1137 10.0275 38.5 10.9999 38.5H14.6666C15.639 38.5 16.5717 38.1137 17.2593 37.4261C17.9469 36.7384 18.3333 35.8058 18.3333 34.8333V31.1667C18.3333 30.1942 17.9469 29.2616 17.2593 28.5739C16.5717 27.8863 15.639 27.5 14.6666 27.5H10.9999ZM29.3333 31.1667H25.6666V34.8333H29.3333V31.1667ZM25.6666 27.5C24.6941 27.5 23.7615 27.8863 23.0739 28.5739C22.3862 29.2616 21.9999 30.1942 21.9999 31.1667V34.8333C21.9999 35.8058 22.3862 36.7384 23.0739 37.4261C23.7615 38.1137 24.6941 38.5 25.6666 38.5H29.3333C30.3057 38.5 31.2383 38.1137 31.926 37.4261C32.6136 36.7384 32.9999 35.8058 32.9999 34.8333V31.1667C32.9999 30.1942 32.6136 29.2616 31.926 28.5739C31.2383 27.8863 30.3057 27.5 29.3333 27.5H25.6666ZM43.9999 31.1667H40.3333V34.8333H43.9999V31.1667ZM40.3333 27.5C39.3608 27.5 38.4282 27.8863 37.7405 28.5739C37.0529 29.2616 36.6666 30.1942 36.6666 31.1667V34.8333C36.6666 35.8058 37.0529 36.7384 37.7405 37.4261C38.4282 38.1137 39.3608 38.5 40.3333 38.5H43.9999C44.9724 38.5 45.905 38.1137 46.5926 37.4261C47.2803 36.7384 47.6666 35.8058 47.6666 34.8333V31.1667C47.6666 30.1942 47.2803 29.2616 46.5926 28.5739C45.905 27.8863 44.9724 27.5 43.9999 27.5H40.3333ZM14.6666 45.8333H10.9999V49.5H14.6666V45.8333ZM10.9999 42.1667C10.0275 42.1667 9.09483 42.553 8.40719 43.2406C7.71956 43.9282 7.33325 44.8609 7.33325 45.8333V49.5C7.33325 50.4725 7.71956 51.4051 8.40719 52.0927C9.09483 52.7804 10.0275 53.1667 10.9999 53.1667H14.6666C15.639 53.1667 16.5717 52.7804 17.2593 52.0927C17.9469 51.4051 18.3333 50.4725 18.3333 49.5V45.8333C18.3333 44.8609 17.9469 43.9282 17.2593 43.2406C16.5717 42.553 15.639 42.1667 14.6666 42.1667H10.9999ZM29.3333 45.8333H25.6666V49.5H29.3333V45.8333ZM25.6666 42.1667C24.6941 42.1667 23.7615 42.553 23.0739 43.2406C22.3862 43.9282 21.9999 44.8609 21.9999 45.8333V49.5C21.9999 50.4725 22.3862 51.4051 23.0739 52.0927C23.7615 52.7804 24.6941 53.1667 25.6666 53.1667H29.3333C30.3057 53.1667 31.2383 52.7804 31.926 52.0927C32.6136 51.4051 32.9999 50.4725 32.9999 49.5V45.8333C32.9999 44.8609 32.6136 43.9282 31.926 43.2406C31.2383 42.553 30.3057 42.1667 29.3333 42.1667H25.6666Z" fill="#EEEEEE"/>
<path fill-rule="evenodd" clip-rule="evenodd" d="M3.66667 11C3.66667 10.5138 3.85982 10.0475 4.20364 9.70364C4.54745 9.35982 5.01377 9.16667 5.5 9.16667H14.6667V5.5H5.5C4.04131 5.5 2.64236 6.07946 1.61091 7.11091C0.579463 8.14236 0 9.54131 0 11V55C0 56.4587 0.579463 57.8576 1.61091 58.8891C2.64236 59.9205 4.04131 60.5 5.5 60.5H42.6342C41.8523 59.3801 41.255 58.1422 40.865 56.8333H5.5C5.01377 56.8333 4.54745 56.6402 4.20364 56.2964C3.85982 55.9525 3.66667 55.4862 3.66667 55V11ZM51.3333 40.4617C52.5494 40.2877 53.784 40.2877 55 40.4617V11C55 9.54131 54.4205 8.14236 53.3891 7.11091C52.3576 6.07946 50.9587 5.5 49.5 5.5H44V9.16667H49.5C49.9862 9.16667 50.4525 9.35982 50.7964 9.70364C51.1402 10.0475 51.3333 10.5138 51.3333 11V40.4617ZM18.3333 9.16667H37.6988V5.5H18.3333V9.16667Z" fill="#EEEEEE"/>
<path fill-rule="evenodd" clip-rule="evenodd" d="M55.0001 21.9999H3.66675V18.3333H55.0001V21.9999Z" fill="#EEEEEE"/>
<path d="M11 1.83333C11 1.3471 11.1932 0.880788 11.537 0.536971C11.8808 0.193155 12.3471 0 12.8333 0C13.3196 0 13.7859 0.193155 14.1297 0.536971C14.4735 0.880788 14.6667 1.3471 14.6667 1.83333V9.16667C14.6667 9.6529 14.4735 10.1192 14.1297 10.463C13.7859 10.8068 13.3196 11 12.8333 11C12.3471 11 11.8808 10.8068 11.537 10.463C11.1932 10.1192 11 9.6529 11 9.16667V1.83333ZM36.6667 1.83333C36.6667 1.3471 36.8598 0.880788 37.2036 0.536971C37.5474 0.193155 38.0138 0 38.5 0C38.9862 0 39.4525 0.193155 39.7964 0.536971C40.1402 0.880788 40.3333 1.3471 40.3333 1.83333V9.16667C40.3333 9.6529 40.1402 10.1192 39.7964 10.463C39.4525 10.8068 38.9862 11 38.5 11C38.0138 11 37.5474 10.8068 37.2036 10.463C36.8598 10.1192 36.6667 9.6529 36.6667 9.16667V1.83333Z" fill="#EEEEEE"/>
</svg>
