<svg width="66" height="66" viewBox="0 0 66 66" fill="none" xmlns="http://www.w3.org/2000/svg">
<path d="M33 4.125C31.359 4.125 29.7852 4.7769 28.6248 5.93728C27.4644 7.09766 26.8125 8.67147 26.8125 10.3125C26.8125 11.9535 27.4644 13.5273 28.6248 14.6877C29.7852 15.8481 31.359 16.5 33 16.5C34.641 16.5 36.2148 15.8481 37.3752 14.6877C38.5356 13.5273 39.1875 11.9535 39.1875 10.3125C39.1875 8.67147 38.5356 7.09766 37.3752 5.93728C36.2148 4.7769 34.641 4.125 33 4.125ZM22.6875 10.3125C22.6875 7.57746 23.774 4.95443 25.708 3.02046C27.6419 1.08649 30.265 0 33 0C35.735 0 38.3581 1.08649 40.292 3.02046C42.226 4.95443 43.3125 7.57746 43.3125 10.3125C43.3125 13.0475 42.226 15.6706 40.292 17.6045C38.3581 19.5385 35.735 20.625 33 20.625C30.265 20.625 27.6419 19.5385 25.708 17.6045C23.774 15.6706 22.6875 13.0475 22.6875 10.3125ZM55.6875 8.25C54.5935 8.25 53.5443 8.6846 52.7707 9.45819C51.9971 10.2318 51.5625 11.281 51.5625 12.375C51.5625 13.469 51.9971 14.5182 52.7707 15.2918C53.5443 16.0654 54.5935 16.5 55.6875 16.5C56.7815 16.5 57.8307 16.0654 58.6043 15.2918C59.3779 14.5182 59.8125 13.469 59.8125 12.375C59.8125 11.281 59.3779 10.2318 58.6043 9.45819C57.8307 8.6846 56.7815 8.25 55.6875 8.25ZM47.4375 12.375C47.4375 10.187 48.3067 8.08854 49.8539 6.54137C51.401 4.99419 53.4995 4.125 55.6875 4.125C57.8755 4.125 59.974 4.99419 61.5211 6.54137C63.0683 8.08854 63.9375 10.187 63.9375 12.375C63.9375 14.563 63.0683 16.6615 61.5211 18.2086C59.974 19.7558 57.8755 20.625 55.6875 20.625C53.4995 20.625 51.401 19.7558 49.8539 18.2086C48.3067 16.6615 47.4375 14.563 47.4375 12.375ZM6.1875 12.375C6.1875 11.281 6.6221 10.2318 7.39568 9.45819C8.16927 8.6846 9.21848 8.25 10.3125 8.25C11.4065 8.25 12.4557 8.6846 13.2293 9.45819C14.0029 10.2318 14.4375 11.281 14.4375 12.375C14.4375 13.469 14.0029 14.5182 13.2293 15.2918C12.4557 16.0654 11.4065 16.5 10.3125 16.5C9.21848 16.5 8.16927 16.0654 7.39568 15.2918C6.6221 14.5182 6.1875 13.469 6.1875 12.375ZM10.3125 4.125C8.12446 4.125 6.02604 4.99419 4.47887 6.54137C2.93169 8.08854 2.0625 10.187 2.0625 12.375C2.0625 14.563 2.93169 16.6615 4.47887 18.2086C6.02604 19.7558 8.12446 20.625 10.3125 20.625C12.5005 20.625 14.599 19.7558 16.1461 18.2086C17.6933 16.6615 18.5625 14.563 18.5625 12.375C18.5625 10.187 17.6933 8.08854 16.1461 6.54137C14.599 4.99419 12.5005 4.125 10.3125 4.125ZM12.7875 53.6167C11.6706 53.6727 10.554 53.5009 9.50548 53.1119C8.45699 52.723 7.49853 52.1249 6.68833 51.354C5.87813 50.5832 5.23311 49.6557 4.79246 48.6278C4.3518 47.6 4.12472 46.4933 4.125 45.375V29.9062C4.125 29.6327 4.23365 29.3704 4.42705 29.177C4.62044 28.9836 4.88275 28.875 5.15625 28.875H12.4327C12.5977 27.3611 13.134 25.9545 13.9384 24.75H5.15625C2.31 24.75 7.3582e-08 27.06 7.3582e-08 29.9062V45.375C-0.000192497 47.141 0.377597 48.8866 1.10798 50.4944C1.83837 52.1023 2.90443 53.5353 4.23454 54.6969C5.56465 55.8586 7.12799 56.7222 8.81952 57.2296C10.5111 57.737 12.2916 57.8764 14.0415 57.6386C13.4863 56.3447 13.0661 54.9969 12.7875 53.6167ZM51.9585 57.6386C53.7084 57.8764 55.4889 57.737 57.1805 57.2296C58.872 56.7222 60.4354 55.8586 61.7655 54.6969C63.0956 53.5353 64.1616 52.1023 64.892 50.4944C65.6224 48.8866 66.0002 47.141 66 45.375V29.9062C66 27.06 63.69 24.75 60.8438 24.75H52.0616C52.8701 25.9545 53.4022 27.3611 53.5672 28.875H60.8438C61.1173 28.875 61.3796 28.9836 61.573 29.177C61.7663 29.3704 61.875 29.6327 61.875 29.9062V45.375C61.8753 46.4933 61.6482 47.6 61.2075 48.6278C60.7669 49.6557 60.1219 50.5832 59.3117 51.354C58.5015 52.1249 57.543 52.723 56.4945 53.1119C55.446 53.5009 54.3294 53.6727 53.2125 53.6167C52.9338 54.9969 52.5136 56.3447 51.9585 57.6386ZM21.6562 24.75C18.81 24.75 16.5 27.06 16.5 29.9062V49.5C16.5 53.8761 18.2384 58.0729 21.3327 61.1673C24.4271 64.2616 28.6239 66 33 66C37.3761 66 41.5729 64.2616 44.6673 61.1673C47.7616 58.0729 49.5 53.8761 49.5 49.5V29.9062C49.5 27.06 47.19 24.75 44.3438 24.75H21.6562ZM20.625 29.9062C20.625 29.6327 20.7336 29.3704 20.927 29.177C21.1204 28.9836 21.3827 28.875 21.6562 28.875H44.3438C44.6173 28.875 44.8796 28.9836 45.073 29.177C45.2663 29.3704 45.375 29.6327 45.375 29.9062V49.5C45.375 52.7821 44.0712 55.9297 41.7504 58.2504C39.4297 60.5712 36.2821 61.875 33 61.875C29.7179 61.875 26.5703 60.5712 24.2496 58.2504C21.9288 55.9297 20.625 52.7821 20.625 49.5V29.9062Z" fill="#EEEEEE"/>
</svg>
