<svg width="25" height="27" viewBox="0 0 25 27" fill="none" xmlns="http://www.w3.org/2000/svg">
<path opacity="0.8" fill-rule="evenodd" clip-rule="evenodd" d="M18.2279 15.965C17.916 15.8089 16.3868 15.0567 16.1021 14.9519C15.8174 14.8482 15.6102 14.7969 15.4019 15.1091C15.1946 15.4192 14.5991 16.121 14.418 16.3285C14.2359 16.5369 14.0548 16.5621 13.7439 16.407C13.4331 16.2499 12.4304 15.922 11.2424 14.8618C10.3182 14.0363 9.6933 13.017 9.51222 12.7048C9.33115 12.3937 9.49234 12.225 9.64829 12.07C9.78855 11.9307 9.95916 11.7065 10.1151 11.5253C10.2711 11.343 10.3224 11.2131 10.426 11.0046C10.5306 10.7972 10.4783 10.6159 10.3998 10.4599C10.3224 10.3038 9.70063 8.77114 9.44105 8.14782C9.1888 7.54126 8.93236 7.62402 8.74187 7.61355C8.55974 7.60517 8.3525 7.60307 8.14526 7.60307C7.93802 7.60307 7.60099 7.68059 7.31629 7.99278C7.03055 8.30391 6.22774 9.05713 6.22774 10.5898C6.22774 12.1213 7.34141 13.6016 7.49737 13.8101C7.65332 14.0175 9.69016 17.1624 12.8103 18.5106C13.5535 18.8312 14.1323 19.0229 14.5834 19.1653C15.3286 19.4032 16.0069 19.3696 16.5428 19.289C17.1394 19.1999 18.3828 18.5357 18.6424 17.8087C18.9009 17.0817 18.9009 16.4584 18.8235 16.3285C18.746 16.1986 18.5388 16.121 18.2269 15.965H18.2279ZM12.5528 23.7203H12.5486C10.6954 23.7206 8.87623 23.222 7.28175 22.2767L6.90494 22.0525L2.98827 23.0813L4.0339 19.2596L3.78793 18.8678C2.75186 17.2172 2.20357 15.3068 2.2064 13.3575C2.20849 7.64812 6.84947 3.00309 12.557 3.00309C15.3202 3.00309 17.9181 4.08211 19.8712 6.03902C20.8346 6.99922 21.5981 8.14108 22.1177 9.39854C22.6372 10.656 22.9025 12.0041 22.8982 13.3648C22.8961 19.0742 18.2551 23.7203 12.5528 23.7203ZM21.3575 4.55248C20.2043 3.39062 18.8321 2.46938 17.3205 1.84215C15.809 1.21492 14.1881 0.894167 12.5518 0.89848C5.69184 0.89848 0.106761 6.48739 0.104668 13.3565C0.101489 15.5425 0.674454 17.6907 1.76575 19.5844L0 26.0407L6.59827 24.308C8.42354 25.3033 10.469 25.8249 12.5476 25.8249H12.5528C19.4128 25.8249 24.9978 20.236 24.9999 13.3659C25.005 11.7288 24.6857 10.1069 24.0605 8.59413C23.4353 7.08134 22.5166 5.70763 21.3575 4.55248Z" fill="#EEEEEE"/>
</svg>
